# xmcd CD database file
#
# Track frame offsets:
#	150
#	16752
#	37183
#	54683
#	67554
#	79116
#	90113
#	105346
#	114678
#	132356
#	149764
#	167023
#	179482
#	196861
#	207754
#	226721
#	238566
#	259797
#	273847
#	285762
#	300592
#	310964
#
# Disc length: 4470 seconds
#
# Revision: 1
# Processed by: cddbd v1.5.2PL0 Copyright (c) Steve Scherf et al.
# Submitted via: CDex 1.51
#
DISCID=1d117416
DTITLE=Various Artist - ZM-TPMH-Disc-9
DYEAR=1900
DGENRE=Blues
TTITLE0=Neil Diamond - Song Sung Blue
TTITLE1=Neil Diamond - Soolaimon
TTITLE2=Elton John - Sorry Seems To Be The Hardest Word
TTITLE3=Neil Diamond - Stargazer
TTITLE4=Elvis Presley - Stuck On You
TTITLE5=Cliff Richard - Summer Holiday
TTITLE6=Neil Diamond - Summer Love
TTITLE7=Elvis Presley - Surrender
TTITLE8=Elvis Presley - Suspicious Minds
TTITLE9=Neil Diamond - Sweet Caroline
TTITLE10=Billy Joel - Tell Her About It
TTITLE11=Roy Orbison - The Actress
TTITLE12=Elton John - The Bitch Is Back
TTITLE13=Cliff Richard - The Day I Met Marie
TTITLE14=Rod Stewart - The First Cut Is The Deepest
TTITLE15=Elvis Presley - The Girl Of My Best Friend
TTITLE16=Rod Stewart - The Killing Of Georgie
TTITLE17=Cliff Richard - The Next Time
TTITLE18=Elvis Presley - The Wonder Of You
TTITLE19=Cliff Richard - The Young Ones
TTITLE20=Cliff Richard - Theme For A Dream
TTITLE21=Michael Jackson - Thriller
EXTD=
EXTT0=
EXTT1=
EXTT2=
EXTT3=
EXTT4=
EXTT5=
EXTT6=
EXTT7=
EXTT8=
EXTT9=
EXTT10=
EXTT11=
EXTT12=
EXTT13=
EXTT14=
EXTT15=
EXTT16=
EXTT17=
EXTT18=
EXTT19=
EXTT20=
EXTT21=
PLAYORDER=
